# xmcd
#
# Track frame offsets:
#	150
#	18432
#	33272
#	48603
#	65107
#	84525
#	101548
#	121391
#	135925
#	148650
#
# Disc length: 2200 seconds
#
# Revision: 1
# Processed by: cddbd v1.5.2PL0 Copyright (c) Steve Scherf et al.
# Submitted via: audiograbber 1.83.01
#
DISCID=8708960a
DTITLE=яаптгс памос [2004] - немои топои
DYEAR=2004
DGENRE=
TTITLE0=дыяо айяибо
TTITLE1=петакоуда
TTITLE2=немои топои
TTITLE3=сйубеи стг цг - мийос йоуяоупайгс
TTITLE4=вяуса
TTITLE5=яобимсымес
TTITLE6=кеме ма жуцы - СТИВОИ жытеимг калпяидг
TTITLE7=ломопати
TTITLE8=тгс факгс
TTITLE9=око танидеуы - лаяиа пападопоукоу
EXTD=
EXTT0=
EXTT1=
EXTT2=
EXTT3=
EXTT4=
EXTT5=
EXTT6=
EXTT7=
EXTT8=
EXTT9=
PLAYORDER=
